<svg width="32" height="32" viewBox="0 0 32 32" fill="none" xmlns="http://www.w3.org/2000/svg">
<path d="M15.1375 1.25C13.4937 1.8375 12.4062 3.50625 12.5187 5.25625C12.6187 6.79375 13.6625 8.20625 15.075 8.71875L15.4687 8.8625L15.4875 9.34375C15.5062 9.91875 15.45 10.0375 14.775 10.7125C14.05 11.4437 13.3375 11.9375 11.0312 13.3125C8.75 14.675 7.94375 15.2437 7.0375 16.1562C5.44375 17.7625 4.8125 19.6625 5.05625 22.0937C5.1875 23.3625 5.6125 24.7437 6.14375 25.625L6.35 25.9688H16H25.65L25.8562 25.625C26.2937 24.9 26.6875 23.75 26.8875 22.625C26.9375 22.3437 26.9687 21.7125 26.9625 21.0312C26.9562 20.025 26.9375 19.8437 26.7937 19.2812C26.3062 17.4625 25.1187 15.9875 23 14.5625C22.7062 14.3687 21.7937 13.8062 20.9687 13.3125C18.6437 11.925 17.9875 11.4687 17.2625 10.7562C16.6062 10.1125 16.5 9.925 16.5 9.4375V9.0125L16.9187 8.96875C18.4437 8.80625 19.7812 7.73125 20.275 6.275C20.45 5.75625 20.4312 5.5875 20.175 5.4125C19.975 5.26875 19.8312 5.2875 19.5062 5.49375C18.9 5.88125 18.6375 5.9625 18 5.96875C17.4625 5.96875 17.3687 5.95 16.9875 5.76875C16.4062 5.49375 16.0437 5.14375 15.7625 4.575C15.5437 4.125 15.5312 4.06875 15.5312 3.50625C15.5375 2.8625 15.6187 2.6 16.0062 1.99375C16.225 1.64375 16.2375 1.48125 16.0312 1.28125C15.8437 1.09375 15.6 1.08125 15.1375 1.25Z" fill="#34C759"/>
<path d="M6 27.0813C5.69375 27.1813 5.16875 27.7188 5.075 28.0375C5.025 28.2 5 28.7375 5 29.4938C5 30.6813 5 30.6938 5.15625 30.8438L5.30625 31H16H26.6938L26.8438 30.8438C27 30.6938 27 30.6813 27 29.4938C27 28.7375 26.975 28.2 26.925 28.0375C26.825 27.6938 26.3062 27.175 25.9625 27.075C25.6125 26.975 6.33125 26.975 6 27.0813Z" fill="#34C759"/>
</svg>
