<svg width="24" height="24" viewBox="0 0 24 24" fill="none" xmlns="http://www.w3.org/2000/svg">
<g clip-path="url(#clip0_27_3068)">
<path d="M23.2589 16.2L20.6589 6.82899C20.1037 4.82441 18.894 3.06313 17.2222 1.82548C15.5504 0.587822 13.5127 -0.055087 11.4334 -0.000927323C9.35404 0.0532324 7.35257 0.801348 5.7475 2.12435C4.14243 3.44736 3.02601 5.26922 2.57592 7.29999L0.564915 16.35C0.467608 16.7884 0.469982 17.2431 0.571861 17.6805C0.67374 18.1179 0.872525 18.5269 1.15355 18.8772C1.43457 19.2275 1.79067 19.5103 2.19556 19.7046C2.60045 19.8989 3.04381 19.9999 3.49292 20H7.09992C7.32943 21.1303 7.94265 22.1465 8.83566 22.8764C9.72867 23.6063 10.8466 24.005 11.9999 24.005C13.1533 24.005 14.2712 23.6063 15.1642 22.8764C16.0572 22.1465 16.6704 21.1303 16.8999 20H20.3699C20.832 19.9998 21.2878 19.8928 21.7018 19.6875C22.1158 19.4821 22.4767 19.1839 22.7564 18.816C23.0362 18.4482 23.2271 18.0207 23.3145 17.567C23.4018 17.1132 23.3821 16.6454 23.2589 16.2ZM11.9999 22C11.3817 21.9974 10.7793 21.8039 10.2752 21.4459C9.77115 21.0879 9.39 20.5829 9.18392 20H14.8159C14.6098 20.5829 14.2287 21.0879 13.7246 21.4459C13.2205 21.8039 12.6182 21.9974 11.9999 22ZM21.1649 17.605C21.0716 17.7287 20.9507 17.8288 20.8118 17.8974C20.6729 17.966 20.5198 18.0011 20.3649 18H3.49292C3.34318 18 3.19536 17.9663 3.06036 17.9015C2.92537 17.8367 2.80665 17.7424 2.71297 17.6256C2.61929 17.5088 2.55304 17.3724 2.5191 17.2266C2.48517 17.0808 2.48442 16.9292 2.51692 16.783L4.52792 7.73299C4.88227 6.1392 5.75922 4.70959 7.01937 3.67144C8.27952 2.63328 9.85054 2.04616 11.4827 2.0034C13.1148 1.96064 14.7144 2.46471 16.0272 3.43546C17.34 4.40621 18.2906 5.78794 18.7279 7.36099L21.3279 16.732C21.3704 16.8802 21.3777 17.0362 21.3494 17.1877C21.3212 17.3393 21.258 17.4821 21.1649 17.605Z" fill="#1C1C1E"/>
</g>
<defs>
<clipPath id="clip0_27_3068">
<rect width="24" height="24" fill="white"/>
</clipPath>
</defs>
</svg>
