<svg width="24" height="24" viewBox="0 0 24 24" fill="none" xmlns="http://www.w3.org/2000/svg">
<g clip-path="url(#clip0_27_3062)">
<path d="M12 14C11.2044 14 10.4413 14.3161 9.87868 14.8787C9.31607 15.4413 9 16.2044 9 17V24.026H15V17C15 16.2044 14.6839 15.4413 14.1213 14.8787C13.5587 14.3161 12.7956 14 12 14Z" fill="#007AFF"/>
<path d="M13.338 0.832994C12.9707 0.50243 12.4941 0.319519 12 0.319519C11.5059 0.319519 11.0293 0.50243 10.662 0.832994L0 10.429V20.829C0 21.6777 0.337142 22.4916 0.937258 23.0917C1.53737 23.6919 2.35131 24.029 3.2 24.029H7V17C7 15.6739 7.52678 14.4021 8.46447 13.4645C9.40215 12.5268 10.6739 12 12 12C13.3261 12 14.5979 12.5268 15.5355 13.4645C16.4732 14.4021 17 15.6739 17 17V24.026H20.8C21.6487 24.026 22.4626 23.6889 23.0627 23.0887C23.6629 22.4886 24 21.6747 24 20.826V10.426L13.338 0.832994Z" fill="#007AFF"/>
</g>
<defs>
<clipPath id="clip0_27_3062">
<rect width="24" height="24" fill="white"/>
</clipPath>
</defs>
</svg>
